<svg width="24" height="24" viewBox="0 0 24 24" fill="none" xmlns="http://www.w3.org/2000/svg">
<path opacity="0.4" d="M3 21H21V3H3V21Z" fill="#637381"/>
<path d="M6 6H8V8H6V6Z" fill="#637381"/>
<path d="M10 6H12V8H10V6Z" fill="#637381"/>
<path d="M14 6H16V8H14V6Z" fill="#637381"/>
<path d="M6 10H8V12H6V10Z" fill="#637381"/>
<path d="M10 10H12V12H10V10Z" fill="#637381"/>
<path d="M14 10H16V12H14V10Z" fill="#637381"/>
<path d="M6 14H8V16H6V14Z" fill="#637381"/>
<path d="M10 14H12V16H10V14Z" fill="#637381"/>
<path d="M14 14H16V16H14V14Z" fill="#637381"/>
<path d="M18 6H20V8H18V6Z" fill="#637381"/>
<path d="M18 10H20V12H18V10Z" fill="#637381"/>
<path d="M18 14H20V16H18V14Z" fill="#637381"/>
<path d="M4 6H6V8H4V6Z" fill="#637381"/>
<path d="M4 10H6V12H4V10Z" fill="#637381"/>
<path d="M4 14H6V16H4V14Z" fill="#637381"/>
</svg>
